<svg width="47" height="33" viewBox="0 0 47 33" fill="none" xmlns="http://www.w3.org/2000/svg">
<path d="M46.9995 12.9846C47.0825 10.5034 43.2627 9.84177 43.2627 9.84177C39.8581 8.76659 35.5401 9.92448 33.298 10.6688C43.0966 6.69892 40.6055 1.32298 40.6055 1.32298C39.7751 -1.15822 33.215 0.578619 33.215 0.578619C23.9147 2.8117 20.5931 9.01471 20.5931 9.01471C11.7079 7.11245 5.97827 10.2553 5.97827 10.2553C-2.15954 13.8944 0.331627 19.4358 0.331627 19.4358C1.9924 22.8267 8.3864 20.6764 12.4553 19.0222C6.22739 22.5786 4.40053 27.2929 4.40053 27.2929C3.15495 30.5185 4.40053 32.0072 4.40053 32.0072C6.31042 33.9094 9.96413 32.4207 9.96413 32.4207C17.8528 29.1952 20.261 21.338 20.261 21.338C20.261 32.5861 28.0666 28.947 28.0666 28.947C36.0383 25.3906 30.8899 16.9546 30.8899 16.9546C35.9553 20.6764 42.5154 18.1952 42.5154 18.1952C47.4977 15.8794 46.9995 12.9846 46.9995 12.9846ZM23.0843 16.0448C23.0843 16.0448 18.0189 18.0297 16.5242 16.3756C16.5242 16.3756 13.7009 13.3982 20.8422 10.338C20.8422 10.338 26.9871 8.02223 28.3157 11.2478C28.3157 11.1651 29.5613 13.5636 23.0843 16.0448Z" fill="#FF38B8"/>
</svg>
